# This file uses centimeters as units for non-parametric coordinates.

mtllib Horn.mtl
g default
v -0.311683 -0.393416 0.234781
v 0.218460 -0.393416 0.277778
v -0.501528 0.633810 0.270996
v -0.018935 0.387110 0.270996
v -0.501528 0.633810 -0.270996
v -0.018935 0.387110 -0.270996
v -0.337096 -0.393416 -0.277778
v 0.218460 -0.393416 -0.277778
v -0.024870 1.369254 0.081782
v 0.125400 1.304665 0.081782
v 0.125400 1.304665 -0.081782
v -0.024870 1.369254 -0.081782
v -0.352755 1.132602 0.149438
v -0.078168 1.014580 0.149438
v -0.078168 1.014580 -0.149438
v -0.352755 1.132602 -0.149438
v -0.540897 -0.015279 0.316954
v 0.093011 -0.015279 0.316954
v 0.093011 -0.015279 -0.316954
v -0.540897 -0.015279 -0.316954
v -0.646548 -0.015279 0.000000
v -0.581960 0.674926 0.000000
v -0.215461 1.073591 0.199251
v 0.067356 1.203767 0.120736
v -0.154492 1.299121 0.120736
v -0.032404 0.994909 0.000000
v 0.067356 1.203767 -0.120736
v -0.215461 1.073591 -0.199251
v -0.154492 1.299121 -0.120736
v -0.398519 1.152273 0.000000
v -0.142787 0.748184 0.183889
v -0.377539 1.031295 0.183889
v -0.142787 0.748184 -0.183889
v -0.377539 1.031295 -0.183889
v 0.177380 -0.260186 0.316954
v -0.456527 -0.260186 0.316954
v 0.177381 -0.260186 -0.316954
v -0.456527 -0.260186 -0.316954
v -0.223943 -0.015279 0.422605
v -0.151163 0.151100 0.282931
v -0.260232 0.510460 0.361329
v -0.655009 0.408664 0.282931
v 0.083107 1.366890 0.103518
v 0.178212 1.326012 0.000000
v 0.083107 1.366890 -0.103518
v -0.011998 1.407768 0.000000
v -0.260232 0.510460 -0.361329
v -0.151163 0.151100 -0.282931
v -0.223943 -0.015279 -0.422605
v -0.655009 0.408664 -0.282931
v -0.033367 -0.440046 -0.375000
v 0.341633 -0.440046 0.000000
v -0.033367 -0.440046 0.375000
v -0.371922 -0.440046 0.000000
v 0.198663 -0.015279 0.000000
v 0.061497 0.345994 0.000000
v -0.403086 0.279882 0.377242
v 0.125332 1.405372 0.000000
v -0.403086 0.279882 -0.377242
v -0.000000 -0.500000 0.000000
v -0.067188 0.108173 0.000000
v -0.738983 0.451591 0.000000
v -0.043568 1.251444 0.160982
v 0.104330 1.187874 0.000000
v -0.043568 1.251444 -0.160982
v -0.191467 1.315014 0.000000
v -0.260163 0.889740 0.245185
v -0.103662 0.700999 0.000000
v -0.260163 0.889740 -0.245185
v -0.416664 1.078481 0.000000
v -0.139573 -0.260186 0.422605
v 0.283032 -0.260186 0.000000
v -0.139573 -0.260186 -0.422605
v -0.562178 -0.260186 0.000000
vt 0.406250 0.968750
vt 0.375000 0.000000
vt 0.593750 0.968750
vt 0.625000 0.000000
vt 0.343750 0.281250
vt 0.656250 0.281250
vt 0.375000 0.485012
vt 0.156250 0.233738
vt 0.625000 0.485012
vt 0.843750 0.233738
vt 0.375000 0.766262
vt 0.156250 0.014988
vt 0.625000 0.766262
vt 0.843750 0.014988
vt 0.430556 0.305556
vt 0.569444 0.305556
vt 0.569444 0.444444
vt 0.430556 0.444444
vt 0.406250 0.281250
vt 0.593750 0.281250
vt 0.593750 0.468750
vt 0.406250 0.468750
vt 0.375000 0.121180
vt 0.625000 0.121180
vt 0.625000 0.628820
vt 0.875000 0.121180
vt 0.375000 0.628820
vt 0.125000 0.121180
vt 0.500000 0.184953
vt 0.500000 0.375000
vt 0.500000 0.565046
vt 0.500000 0.875000
vt 0.750000 0.184954
vt 0.250000 0.184954
vt 0.500000 0.250000
vt 0.625000 0.375000
vt 0.500000 0.500000
vt 0.375000 0.375000
vt 0.500000 0.250000
vt 0.625000 0.375000
vt 0.500000 0.500000
vt 0.375000 0.375000
vt 0.500000 0.059953
vt 0.750000 0.059954
vt 0.500000 0.690046
vt 0.250000 0.059954
vt 0.500000 0.121180
vt 0.625000 0.184953
vt 0.500000 0.233738
vt 0.375000 0.184953
vt 0.500000 0.281250
vt 0.593750 0.375000
vt 0.500000 0.468750
vt 0.406250 0.375000
vt 0.500000 0.516262
vt 0.625000 0.565046
vt 0.875000 0.184954
vt 0.500000 0.628820
vt 0.375000 0.565046
vt 0.125000 0.184954
vt 0.500000 0.766262
vt 0.625000 0.875000
vt 0.750000 0.000000
vt 0.500000 1.000000
vt 0.500000 0.000000
vt 0.375000 0.875000
vt 0.250000 0.000000
vt 0.750000 0.121180
vt 0.750000 0.250000
vt 0.625000 0.375000
vt 0.250000 0.121180
vt 0.250000 0.250000
vt 0.375000 0.375000
vt 0.500000 0.250000
vt 0.593750 0.281250
vt 0.406250 0.281250
vt 0.625000 0.375000
vt 0.593750 0.468750
vt 0.500000 0.500000
vt 0.406250 0.468750
vt 0.375000 0.375000
vt 0.593750 0.281250
vt 0.406250 0.281250
vt 0.593750 0.468750
vt 0.406250 0.468750
vt 0.625000 0.059954
vt 0.375000 0.059954
vt 0.875000 0.059954
vt 0.625000 0.690046
vt 0.375000 0.690046
vt 0.125000 0.059954
vn -0.732865 -0.184260 0.654948
vn 0.004565 0.127403 0.991841
vn -0.126319 0.055688 0.990425
vn -0.796833 0.071127 0.599999
vn 0.626948 0.523000 0.577414
vn 0.623057 0.291960 0.725644
vn 0.802731 0.014095 0.596175
vn 0.162359 0.175815 0.970942
vn -0.576706 0.386679 0.719646
vn -0.223131 0.804927 0.549823
vn 0.273573 0.574131 0.771707
vn 0.450438 0.892808 0.000000
vn -0.243342 0.969941 0.000000
vn 0.747906 -0.063536 0.660757
vn 0.999393 -0.034842 -0.000000
vn 0.747906 -0.063536 -0.660757
vn 0.273573 0.574131 -0.771707
vn -0.223131 0.804927 -0.549823
vn -0.576706 0.386679 -0.719646
vn 0.162359 0.175815 -0.970942
vn -0.126318 0.055688 -0.990425
vn -0.796833 0.071127 -0.599999
vn 0.802731 0.014095 -0.596175
vn 0.623057 0.291960 -0.725644
vn 0.626948 0.523000 -0.577414
vn 0.004565 0.127403 -0.991841
vn -0.732865 -0.184260 -0.654948
vn -0.377535 -0.840012 -0.389675
vn 0.033365 -0.844838 -0.533981
vn 0.011234 -0.999937 -0.000000
vn -0.400029 -0.916487 0.005345
vn 0.564777 -0.662246 -0.492400
vn 0.662380 -0.749168 -0.000000
vn 0.564777 -0.662246 0.492400
vn 0.028086 -0.831197 0.555268
vn -0.372359 -0.853754 0.363942
vn 0.789294 0.614015 0.000000
vn 0.898056 0.439881 0.000000
vn 0.999120 -0.041955 -0.000000
vn -0.967099 -0.254401 -0.000000
vn -0.995619 0.093505 0.000000
vn -0.885821 0.464027 -0.000000
vn -0.530704 0.550246 0.644657
vn 0.097451 0.187619 0.977396
vn 0.107278 0.195188 0.974881
vn -0.383161 0.659139 0.647088
vn 0.708200 -0.198596 0.677504
vn 0.651108 -0.324546 0.686096
vn 0.929370 -0.369150 0.000000
vn 0.844595 -0.535405 0.000000
vn 0.708200 -0.198596 -0.677504
vn 0.651108 -0.324546 -0.686096
vn 0.097451 0.187619 -0.977396
vn 0.107278 0.195188 -0.974881
vn -0.530704 0.550246 -0.644657
vn -0.383160 0.659139 -0.647088
vn -0.750374 0.661014 -0.000000
vn -0.569412 0.822052 -0.000000
vn 0.083613 0.253572 0.963696
vn -0.697438 0.366386 0.615907
vn 0.796688 0.234303 0.557126
vn 0.973555 0.228452 0.000000
vn 0.796688 0.234303 -0.557126
vn 0.083613 0.253572 -0.963696
vn -0.697438 0.366386 -0.615907
vn -0.933743 0.357945 -0.000000
vn -0.020916 -0.177994 0.983809
vn -0.630361 -0.418734 0.653687
vn 0.697404 0.171736 0.695798
vn 0.953623 0.301003 0.000000
vn 0.697404 0.171736 -0.695798
vn -0.000891 -0.126599 -0.991954
vn -0.647432 -0.399071 -0.649287
vn -0.864860 -0.501964 0.006998
s 1
g pCube1
usemtl initialShadingGroup
f 17/23/1 39/47/2 57/29/3 42/50/4
f 39/47/2 18/24/5 40/48/6 57/29/3
f 57/29/3 40/48/6 4/6/7 41/49/8
f 42/50/4 57/29/3 41/49/8 3/5/9
f 9/15/10 43/51/11 58/30/12 46/54/13
f 43/51/11 10/16/14 44/52/15 58/30/12
f 58/30/12 44/52/15 11/17/16 45/53/17
f 46/54/13 58/30/12 45/53/17 12/18/18
f 5/7/19 47/55/20 59/31/21 50/59/22
f 47/55/20 6/9/23 48/56/24 59/31/21
f 59/31/21 48/56/24 19/25/25 49/58/26
f 50/59/22 59/31/21 49/58/26 20/27/27
f 7/11/28 51/61/29 60/32/30 54/66/31
f 51/61/29 8/13/32 52/62/33 60/32/30
f 60/32/30 52/62/33 2/3/34 53/64/35
f 54/66/31 60/32/30 53/64/35 1/1/36
f 18/24/5 55/68/37 61/33/38 40/48/6
f 55/68/37 19/26/25 48/57/24 61/33/38
f 61/33/38 48/57/24 6/10/23 56/69/39
f 40/48/6 61/33/38 56/69/39 4/6/7
f 20/28/27 21/71/40 62/34/41 50/60/22
f 21/71/40 17/23/1 42/50/4 62/34/41
f 62/34/41 42/50/4 3/5/9 22/72/42
f 50/60/22 62/34/41 22/72/42 5/8/19
f 13/19/43 23/74/44 63/35/45 25/76/46
f 23/74/44 14/20/47 24/75/48 63/35/45
f 63/35/45 24/75/48 10/16/14 43/51/11
f 25/76/46 63/35/45 43/51/11 9/15/10
f 14/20/47 26/77/49 64/36/50 24/75/48
f 26/77/49 15/21/51 27/78/52 64/36/50
f 64/36/50 27/78/52 11/17/16 44/52/15
f 24/75/48 64/36/50 44/52/15 10/16/14
f 15/21/51 28/79/53 65/37/54 27/78/52
f 28/79/53 16/22/55 29/80/56 65/37/54
f 65/37/54 29/80/56 12/18/18 45/53/17
f 27/78/52 65/37/54 45/53/17 11/17/16
f 16/22/55 30/81/57 66/38/58 29/80/56
f 30/81/57 13/19/43 25/76/46 66/38/58
f 66/38/58 25/76/46 9/15/10 46/54/13
f 29/80/56 66/38/58 46/54/13 12/18/18
f 3/5/9 41/49/8 67/39/59 32/83/60
f 41/49/8 4/6/7 31/82/61 67/39/59
f 67/39/59 31/82/61 14/20/47 23/74/44
f 32/83/60 67/39/59 23/74/44 13/19/43
f 4/6/7 56/70/39 68/40/62 31/82/61
f 56/70/39 6/9/23 33/84/63 68/40/62
f 68/40/62 33/84/63 15/21/51 26/77/49
f 31/82/61 68/40/62 26/77/49 14/20/47
f 6/9/23 47/55/20 69/41/64 33/84/63
f 47/55/20 5/7/19 34/85/65 69/41/64
f 69/41/64 34/85/65 16/22/55 28/79/53
f 33/84/63 69/41/64 28/79/53 15/21/51
f 5/7/19 22/73/42 70/42/66 34/85/65
f 22/73/42 3/5/9 32/83/60 70/42/66
f 70/42/66 32/83/60 13/19/43 30/81/57
f 34/85/65 70/42/66 30/81/57 16/22/55
f 1/2/36 53/65/35 71/43/67 36/87/68
f 53/65/35 2/4/34 35/86/69 71/43/67
f 71/43/67 35/86/69 18/24/5 39/47/2
f 36/87/68 71/43/67 39/47/2 17/23/1
f 2/4/34 52/63/33 72/44/70 35/86/69
f 52/63/33 8/14/32 37/88/71 72/44/70
f 72/44/70 37/88/71 19/26/25 55/68/37
f 35/86/69 72/44/70 55/68/37 18/24/5
f 20/27/27 49/58/26 73/45/72 38/90/73
f 49/58/26 19/25/25 37/89/71 73/45/72
f 73/45/72 37/89/71 8/13/32 51/61/29
f 38/90/73 73/45/72 51/61/29 7/11/28
f 7/12/28 54/67/31 74/46/74 38/91/73
f 54/67/31 1/2/36 36/87/68 74/46/74
f 74/46/74 36/87/68 17/23/1 21/71/40
f 38/91/73 74/46/74 21/71/40 20/28/27
